<svg width="32" height="32" viewBox="0 0 32 32" fill="none" xmlns="http://www.w3.org/2000/svg">
  <!-- Modern gradient background -->
  <rect width="32" height="32" rx="8" fill="url(#modernGradient)"/>
  
  <!-- Abstract chart/growth visualization -->
  <g transform="translate(6, 8)">
    <!-- Base bars with gradient -->
    <rect x="0" y="12" width="3.5" height="4" rx="1.5" fill="url(#barGradient1)" opacity="0.9"/>
    <rect x="5" y="8" width="3.5" height="8" rx="1.5" fill="url(#barGradient2)" opacity="0.95"/>
    <rect x="10" y="4" width="3.5" height="12" rx="1.5" fill="url(#barGradient3)"/>
    <rect x="15.5" y="2" width="3.5" height="14" rx="1.5" fill="url(#barGradient4)"/>
    
    <!-- Connecting trend line with glow -->
    <path d="M 1.75 13 L 6.75 9.5 L 11.75 5.5 L 17.25 3" 
          stroke="white" 
          stroke-width="1.8" 
          stroke-linecap="round" 
          stroke-linejoin="round"
          opacity="0.9"
          filter="url(#glow)"/>
    
    <!-- Accent dots at peaks -->
    <circle cx="1.75" cy="13" r="1.5" fill="white" opacity="0.9"/>
    <circle cx="6.75" cy="9.5" r="1.5" fill="white" opacity="0.95"/>
    <circle cx="11.75" cy="5.5" r="1.5" fill="white"/>
    <circle cx="17.25" cy="3" r="1.5" fill="white"/>
    
    <!-- Star/sparkle accent at the peak -->
    <g transform="translate(17.25, 3)">
      <circle r="2.5" fill="white" opacity="0.3"/>
      <path d="M 0 -4 L 0.5 -1 L 3 0 L 0.5 1 L 0 4 L -0.5 1 L -3 0 L -0.5 -1 Z" 
            fill="white" 
            opacity="0.6" 
            transform="scale(0.4)"/>
    </g>
  </g>
  
  <defs>
    <!-- Main background gradient -->
    <linearGradient id="modernGradient" x1="0" y1="0" x2="32" y2="32" gradientUnits="userSpaceOnUse">
      <stop offset="0%" stop-color="#7c3aed"/>
      <stop offset="50%" stop-color="#8b5cf6"/>
      <stop offset="100%" stop-color="#a855f7"/>
    </linearGradient>
    
    <!-- Bar gradients for depth -->
    <linearGradient id="barGradient1" x1="0" y1="0" x2="0" y2="1">
      <stop offset="0%" stop-color="rgba(255,255,255,0.95)"/>
      <stop offset="100%" stop-color="rgba(255,255,255,0.7)"/>
    </linearGradient>
    <linearGradient id="barGradient2" x1="0" y1="0" x2="0" y2="1">
      <stop offset="0%" stop-color="rgba(255,255,255,0.95)"/>
      <stop offset="100%" stop-color="rgba(255,255,255,0.75)"/>
    </linearGradient>
    <linearGradient id="barGradient3" x1="0" y1="0" x2="0" y2="1">
      <stop offset="0%" stop-color="rgba(255,255,255,1)"/>
      <stop offset="100%" stop-color="rgba(255,255,255,0.8)"/>
    </linearGradient>
    <linearGradient id="barGradient4" x1="0" y1="0" x2="0" y2="1">
      <stop offset="0%" stop-color="rgba(255,255,255,1)"/>
      <stop offset="100%" stop-color="rgba(255,255,255,0.85)"/>
    </linearGradient>
    
    <!-- Glow effect for the trend line -->
    <filter id="glow">
      <feGaussianBlur stdDeviation="1" result="coloredBlur"/>
      <feMerge>
        <feMergeNode in="coloredBlur"/>
        <feMergeNode in="SourceGraphic"/>
      </feMerge>
    </filter>
  </defs>
</svg>
